<svg id="Layer_1" data-name="Layer 1" xmlns="http://www.w3.org/2000/svg" viewBox="0 0 211.39 137.61"><defs><style>.cls-1{font-size:80px;fill:#054731;}.cls-1,.cls-3{font-family:MyriadPro-Regular, Myriad Pro;}.cls-2{fill:#fff;}.cls-2,.cls-4{stroke:#231f20;stroke-miterlimit:10;stroke-width:3px;}.cls-3{font-size:46px;fill:#65190c;}.cls-4{fill:none;}</style></defs><text class="cls-1" transform="translate(10.49 93.91)">{</text><text class="cls-1" transform="matrix(-1, 0, 0, 1, 189.05, 93.91)">{</text><path class="cls-2" d="M83.31,46.41,69.58,70.2,52.26,102.14a55.05,55.05,0,0,1-4.82-55.73Z"/><path class="cls-2" d="M110.78,46.41H47.44A55,55,0,0,1,92.46,16Z"/><path class="cls-2" d="M143.2,39.75,124.93,70.2,111,46.76,92.46,16.19C94,16.06,95.54,16,97.11,16A56.1,56.1,0,0,1,143.2,39.75Z"/><path class="cls-2" d="M153,71a52.25,52.25,0,0,1-6,24.26l-36.79-.71L124.43,71l18.68-30.58A52.46,52.46,0,0,1,153,71Z"/><path class="cls-2" d="M146.67,94.72a55.32,55.32,0,0,1-45,30.49L83.31,94H111Z"/><path class="cls-2" d="M124.52,70.2,110.78,94H83.31l18.24,31c-1.49.13-3,.19-4.5.19a54.92,54.92,0,0,1-44.79-23.07L69.58,70.2,83.31,46.41h27.47Z"/><text class="cls-3" transform="translate(198.05 95.29) scale(0.72 1)">;</text><polygon class="cls-4" points="124.52 70.2 110.78 93.99 83.31 93.99 69.58 70.2 83.31 46.41 110.78 46.41 124.52 70.2"/><line class="cls-4" x1="51.28" y1="26.75" x2="51.27" y2="26.75"/><line class="cls-4" x1="211.39" y1="11.72" x2="211.28" y2="11.53"/></svg>