<svg id="Layer_1" data-name="Layer 1" xmlns="http://www.w3.org/2000/svg" viewBox="0 0 516.51 137.61"><defs><style>.cls-1{font-size:80px;fill:#054731;}.cls-1,.cls-3{font-family:MyriadPro-Regular, Myriad Pro;}.cls-2{fill:#fff;}.cls-2,.cls-4{stroke:#231f20;stroke-miterlimit:10;stroke-width:3px;}.cls-3{font-size:46px;fill:#65190c;}.cls-4{fill:none;}</style></defs><text class="cls-1" transform="translate(173.45 93.91)">{</text><text class="cls-1" transform="matrix(-1, 0, 0, 1, 352.01, 93.91)">{</text><path class="cls-2" d="M246.27,46.41,232.53,70.2l-17.32,31.94a55.08,55.08,0,0,1-4.81-55.73Z"/><path class="cls-2" d="M273.74,46.41H210.4a55,55,0,0,1,45-30.41Z"/><path class="cls-2" d="M306.16,39.75,287.89,70.2,274,46.76,255.41,16.19c1.54-.13,3.09-.19,4.65-.19A56.1,56.1,0,0,1,306.16,39.75Z"/><path class="cls-2" d="M315.91,71a52.25,52.25,0,0,1-6,24.26l-36.79-.71L287.39,71l18.68-30.58A52.46,52.46,0,0,1,315.91,71Z"/><path class="cls-2" d="M309.63,94.72a55.32,55.32,0,0,1-45,30.49L246.27,94H273.9Z"/><path class="cls-2" d="M287.48,70.2,273.74,94H246.27l18.24,31c-1.49.13-3,.19-4.5.19a55,55,0,0,1-44.8-23.07L232.53,70.2l13.74-23.79h27.47Z"/><text class="cls-3" transform="translate(361.01 95.29) scale(0.72 1)">;</text><polygon class="cls-4" points="287.48 70.2 273.74 93.99 246.27 93.99 232.53 70.2 246.27 46.41 273.74 46.41 287.48 70.2"/><line class="cls-4" x1="214.24" y1="26.75" x2="214.23" y2="26.75"/><line class="cls-4" x1="488.02" y1="11.36" x2="487.93" y2="11.51"/><line class="cls-4" x1="374.35" y1="11.72" x2="374.24" y2="11.53"/></svg>