<svg id="Layer_1" data-name="Layer 1" xmlns="http://www.w3.org/2000/svg" viewBox="0 0 516.51 137.61"><defs><style>.cls-1{font-size:80px;fill:#231f20;font-family:MyriadPro-Regular, Myriad Pro;}.cls-2{fill:#fff;}.cls-2,.cls-3{stroke:#231f20;stroke-miterlimit:10;stroke-width:3px;}.cls-3{fill:none;}</style></defs><text class="cls-1" transform="translate(173.08 90.77)">{</text><text class="cls-1" transform="matrix(-1, 0, 0, 1, 351.64, 90.77)">{</text><path class="cls-2" d="M245.9,43.27l-13.74,23.8L214.84,99A55.08,55.08,0,0,1,210,43.27Z"/><path class="cls-2" d="M273.37,43.27H210a55,55,0,0,1,45-30.4Z"/><path class="cls-2" d="M305.79,36.62,287.52,67.07,273.61,43.62,255,13.05c1.54-.12,3.08-.18,4.65-.18A56.09,56.09,0,0,1,305.79,36.62Z"/><path class="cls-2" d="M315.54,67.89a52.25,52.25,0,0,1-6,24.26l-36.79-.71L287,67.89,305.7,37.31A52.51,52.51,0,0,1,315.54,67.89Z"/><path class="cls-2" d="M309.26,91.58a55.33,55.33,0,0,1-45,30.49L245.9,90.86h27.63Z"/><path class="cls-2" d="M287.11,67.07,273.37,90.86H245.9l18.24,31c-1.49.12-3,.18-4.51.18A55,55,0,0,1,214.84,99l17.32-31.93,13.74-23.8h27.47Z"/><polygon class="cls-3" points="287.11 67.06 273.37 90.86 245.9 90.86 232.16 67.06 245.9 43.27 273.37 43.27 287.11 67.06"/><line class="cls-3" x1="213.87" y1="23.62" x2="213.86" y2="23.62"/><line class="cls-3" x1="368.72" y1="11.9" x2="368.63" y2="12.05"/><line class="cls-3" x1="255.04" y1="12.25" x2="254.93" y2="12.06"/></svg>